<svg xmlns="http://www.w3.org/2000/svg" version="1.1" xmlns:xlink="http://www.w3.org/1999/xlink" xmlns:svgjs="http://svgjs.dev/svgjs" width="1440" height="560" preserveAspectRatio="none" viewBox="0 0 1440 560"><g mask="url(&quot;#SvgjsMask1236&quot;)" fill="none"><path d="M-81.36 358.95L-81.36 358.95" stroke="rgba(250, 131, 52, 0.67)" stroke-width="1.5"></path><path d="M-81.36 358.95L53.96 398.06" stroke="rgba(250, 131, 52, 0.67)" stroke-width="1.5"></path><path d="M-81.36 358.95L-56.76 524.12" stroke="rgba(250, 131, 52, 0.67)" stroke-width="1.5"></path><path d="M-81.36 358.95L110.13 515.39" stroke="rgba(250, 131, 52, 0.67)" stroke-width="1.5"></path><path d="M-81.36 358.95L234.31 369.23" stroke="rgba(250, 131, 52, 0.67)" stroke-width="1.5"></path><path d="M-81.36 358.95L205.11 505.16" stroke="rgba(250, 131, 52, 0.67)" stroke-width="1.5"></path><path d="M-81.36 358.95L-104.05 692.33" stroke="rgba(250, 131, 52, 0.67)" stroke-width="1.5"></path><path d="M-56.76 524.12L-56.76 524.12" stroke="rgba(250, 131, 52, 0.67)" stroke-width="1.5"></path><path d="M-56.76 524.12L110.13 515.39" stroke="rgba(250, 131, 52, 0.67)" stroke-width="1.5"></path><path d="M-104.05 692.33L-104.05 692.33" stroke="rgba(250, 131, 52, 0.67)" stroke-width="1.5"></path><path d="M-104.05 692.33L50.38 688.17" stroke="rgba(250, 131, 52, 0.67)" stroke-width="1.5"></path><path d="M-104.05 692.33L-56.76 524.12" stroke="rgba(250, 131, 52, 0.67)" stroke-width="1.5"></path><path d="M-104.05 692.33L110.13 515.39" stroke="rgba(250, 131, 52, 0.67)" stroke-width="1.5"></path><path d="M-104.05 692.33L53.96 398.06" stroke="rgba(250, 131, 52, 0.67)" stroke-width="1.5"></path><path d="M53.96 398.06L53.96 398.06" stroke="rgba(250, 131, 52, 0.67)" stroke-width="1.5"></path><path d="M53.96 398.06L110.13 515.39" stroke="rgba(250, 131, 52, 0.67)" stroke-width="1.5"></path><path d="M53.96 398.06L-56.76 524.12" stroke="rgba(250, 131, 52, 0.67)" stroke-width="1.5"></path><path d="M53.96 398.06L234.31 369.23" stroke="rgba(250, 131, 52, 0.67)" stroke-width="1.5"></path><path d="M110.13 515.39L110.13 515.39" stroke="rgba(250, 131, 52, 0.67)" stroke-width="1.5"></path><path d="M110.13 515.39L205.11 505.16" stroke="rgba(250, 131, 52, 0.67)" stroke-width="1.5"></path><path d="M110.13 515.39L50.38 688.17" stroke="rgba(250, 131, 52, 0.67)" stroke-width="1.5"></path><path d="M50.38 688.17L50.38 688.17" stroke="rgba(250, 131, 52, 0.67)" stroke-width="1.5"></path><path d="M50.38 688.17L-56.76 524.12" stroke="rgba(250, 131, 52, 0.67)" stroke-width="1.5"></path><path d="M234.31 369.23L234.31 369.23" stroke="rgba(250, 131, 52, 0.67)" stroke-width="1.5"></path><path d="M234.31 369.23L340.08 395.07" stroke="rgba(250, 131, 52, 0.67)" stroke-width="1.5"></path><path d="M234.31 369.23L205.11 505.16" stroke="rgba(250, 131, 52, 0.67)" stroke-width="1.5"></path><path d="M234.31 369.23L110.13 515.39" stroke="rgba(250, 131, 52, 0.67)" stroke-width="1.5"></path><path d="M234.31 369.23L248.24 641.64" stroke="rgba(250, 131, 52, 0.67)" stroke-width="1.5"></path><path d="M234.31 369.23L537.2 365.3" stroke="rgba(250, 131, 52, 0.67)" stroke-width="1.5"></path><path d="M205.11 505.16L205.11 505.16" stroke="rgba(250, 131, 52, 0.67)" stroke-width="1.5"></path><path d="M205.11 505.16L248.24 641.64" stroke="rgba(250, 131, 52, 0.67)" stroke-width="1.5"></path><path d="M205.11 505.16L340.08 395.07" stroke="rgba(250, 131, 52, 0.67)" stroke-width="1.5"></path><path d="M205.11 505.16L53.96 398.06" stroke="rgba(250, 131, 52, 0.67)" stroke-width="1.5"></path><path d="M205.11 505.16L50.38 688.17" stroke="rgba(250, 131, 52, 0.67)" stroke-width="1.5"></path><path d="M248.24 641.64L248.24 641.64" stroke="rgba(250, 131, 52, 0.67)" stroke-width="1.5"></path><path d="M248.24 641.64L396.65 658.39" stroke="rgba(250, 131, 52, 0.67)" stroke-width="1.5"></path><path d="M340.08 395.07L340.08 395.07" stroke="rgba(250, 131, 52, 0.67)" stroke-width="1.5"></path><path d="M340.08 395.07L537.2 365.3" stroke="rgba(250, 131, 52, 0.67)" stroke-width="1.5"></path><path d="M340.08 395.07L557.78 502.81" stroke="rgba(250, 131, 52, 0.67)" stroke-width="1.5"></path><path d="M396.65 658.39L396.65 658.39" stroke="rgba(250, 131, 52, 0.67)" stroke-width="1.5"></path><path d="M396.65 658.39L557.78 502.81" stroke="rgba(250, 131, 52, 0.67)" stroke-width="1.5"></path><path d="M396.65 658.39L205.11 505.16" stroke="rgba(250, 131, 52, 0.67)" stroke-width="1.5"></path><path d="M396.65 658.39L643.22 686.14" stroke="rgba(250, 131, 52, 0.67)" stroke-width="1.5"></path><path d="M396.65 658.39L340.08 395.07" stroke="rgba(250, 131, 52, 0.67)" stroke-width="1.5"></path><path d="M396.65 658.39L110.13 515.39" stroke="rgba(250, 131, 52, 0.67)" stroke-width="1.5"></path><path d="M537.2 365.3L537.2 365.3" stroke="rgba(250, 131, 52, 0.67)" stroke-width="1.5"></path><path d="M537.2 365.3L557.78 502.81" stroke="rgba(250, 131, 52, 0.67)" stroke-width="1.5"></path><path d="M537.2 365.3L679.77 497.79" stroke="rgba(250, 131, 52, 0.67)" stroke-width="1.5"></path><path d="M537.2 365.3L836.52 410.54" stroke="rgba(250, 131, 52, 0.67)" stroke-width="1.5"></path><path d="M537.2 365.3L827.04 259.46" stroke="rgba(250, 131, 52, 0.67)" stroke-width="1.5"></path><path d="M557.78 502.81L557.78 502.81" stroke="rgba(250, 131, 52, 0.67)" stroke-width="1.5"></path><path d="M557.78 502.81L679.77 497.79" stroke="rgba(250, 131, 52, 0.67)" stroke-width="1.5"></path><path d="M557.78 502.81L643.22 686.14" stroke="rgba(250, 131, 52, 0.67)" stroke-width="1.5"></path><path d="M557.78 502.81L839.39 555.3" stroke="rgba(250, 131, 52, 0.67)" stroke-width="1.5"></path><path d="M679.77 497.79L679.77 497.79" stroke="rgba(250, 131, 52, 0.67)" stroke-width="1.5"></path><path d="M679.77 497.79L839.39 555.3" stroke="rgba(250, 131, 52, 0.67)" stroke-width="1.5"></path><path d="M643.22 686.14L643.22 686.14" stroke="rgba(250, 131, 52, 0.67)" stroke-width="1.5"></path><path d="M643.22 686.14L679.77 497.79" stroke="rgba(250, 131, 52, 0.67)" stroke-width="1.5"></path><path d="M643.22 686.14L839.39 555.3" stroke="rgba(250, 131, 52, 0.67)" stroke-width="1.5"></path><path d="M643.22 686.14L836.52 410.54" stroke="rgba(250, 131, 52, 0.67)" stroke-width="1.5"></path><path d="M643.22 686.14L537.2 365.3" stroke="rgba(250, 131, 52, 0.67)" stroke-width="1.5"></path><path d="M827.04 259.46L827.04 259.46" stroke="rgba(250, 131, 52, 0.67)" stroke-width="1.5"></path><path d="M827.04 259.46L942.39 245.49" stroke="rgba(250, 131, 52, 0.67)" stroke-width="1.5"></path><path d="M827.04 259.46L836.52 410.54" stroke="rgba(250, 131, 52, 0.67)" stroke-width="1.5"></path><path d="M827.04 259.46L966.53 368.04" stroke="rgba(250, 131, 52, 0.67)" stroke-width="1.5"></path><path d="M827.04 259.46L987.85 96.52" stroke="rgba(250, 131, 52, 0.67)" stroke-width="1.5"></path><path d="M827.04 259.46L679.77 497.79" stroke="rgba(250, 131, 52, 0.67)" stroke-width="1.5"></path><path d="M827.04 259.46L1110.73 247.99" stroke="rgba(250, 131, 52, 0.67)" stroke-width="1.5"></path><path d="M836.52 410.54L836.52 410.54" stroke="rgba(250, 131, 52, 0.67)" stroke-width="1.5"></path><path d="M836.52 410.54L966.53 368.04" stroke="rgba(250, 131, 52, 0.67)" stroke-width="1.5"></path><path d="M836.52 410.54L839.39 555.3" stroke="rgba(250, 131, 52, 0.67)" stroke-width="1.5"></path><path d="M839.39 555.3L839.39 555.3" stroke="rgba(250, 131, 52, 0.67)" stroke-width="1.5"></path><path d="M839.39 555.3L1011.81 640.23" stroke="rgba(250, 131, 52, 0.67)" stroke-width="1.5"></path><path d="M839.39 555.3L966.53 368.04" stroke="rgba(250, 131, 52, 0.67)" stroke-width="1.5"></path><path d="M1002.77 -110.79L1002.77 -110.79" stroke="rgba(250, 131, 52, 0.67)" stroke-width="1.5"></path><path d="M1002.77 -110.79L1162.19 -80.85" stroke="rgba(250, 131, 52, 0.67)" stroke-width="1.5"></path><path d="M1002.77 -110.79L987.85 96.52" stroke="rgba(250, 131, 52, 0.67)" stroke-width="1.5"></path><path d="M1002.77 -110.79L1116.79 70.37" stroke="rgba(250, 131, 52, 0.67)" stroke-width="1.5"></path><path d="M1002.77 -110.79L1306.79 -53.6" stroke="rgba(250, 131, 52, 0.67)" stroke-width="1.5"></path><path d="M987.85 96.52L987.85 96.52" stroke="rgba(250, 131, 52, 0.67)" stroke-width="1.5"></path><path d="M987.85 96.52L1116.79 70.37" stroke="rgba(250, 131, 52, 0.67)" stroke-width="1.5"></path><path d="M987.85 96.52L942.39 245.49" stroke="rgba(250, 131, 52, 0.67)" stroke-width="1.5"></path><path d="M987.85 96.52L1110.73 247.99" stroke="rgba(250, 131, 52, 0.67)" stroke-width="1.5"></path><path d="M942.39 245.49L942.39 245.49" stroke="rgba(250, 131, 52, 0.67)" stroke-width="1.5"></path><path d="M942.39 245.49L966.53 368.04" stroke="rgba(250, 131, 52, 0.67)" stroke-width="1.5"></path><path d="M942.39 245.49L1110.73 247.99" stroke="rgba(250, 131, 52, 0.67)" stroke-width="1.5"></path><path d="M942.39 245.49L836.52 410.54" stroke="rgba(250, 131, 52, 0.67)" stroke-width="1.5"></path><path d="M966.53 368.04L966.53 368.04" stroke="rgba(250, 131, 52, 0.67)" stroke-width="1.5"></path><path d="M966.53 368.04L1119.19 371.27" stroke="rgba(250, 131, 52, 0.67)" stroke-width="1.5"></path><path d="M1011.81 640.23L1011.81 640.23" stroke="rgba(250, 131, 52, 0.67)" stroke-width="1.5"></path><path d="M1011.81 640.23L1111.77 697.13" stroke="rgba(250, 131, 52, 0.67)" stroke-width="1.5"></path><path d="M1011.81 640.23L1089.82 489.01" stroke="rgba(250, 131, 52, 0.67)" stroke-width="1.5"></path><path d="M1011.81 640.23L1273.34 681.18" stroke="rgba(250, 131, 52, 0.67)" stroke-width="1.5"></path><path d="M1011.81 640.23L966.53 368.04" stroke="rgba(250, 131, 52, 0.67)" stroke-width="1.5"></path><path d="M1162.19 -80.85L1162.19 -80.85" stroke="rgba(250, 131, 52, 0.67)" stroke-width="1.5"></path><path d="M1162.19 -80.85L1306.79 -53.6" stroke="rgba(250, 131, 52, 0.67)" stroke-width="1.5"></path><path d="M1162.19 -80.85L1116.79 70.37" stroke="rgba(250, 131, 52, 0.67)" stroke-width="1.5"></path><path d="M1162.19 -80.85L1276.02 51.69" stroke="rgba(250, 131, 52, 0.67)" stroke-width="1.5"></path><path d="M1116.79 70.37L1116.79 70.37" stroke="rgba(250, 131, 52, 0.67)" stroke-width="1.5"></path><path d="M1116.79 70.37L1276.02 51.69" stroke="rgba(250, 131, 52, 0.67)" stroke-width="1.5"></path><path d="M1116.79 70.37L1110.73 247.99" stroke="rgba(250, 131, 52, 0.67)" stroke-width="1.5"></path><path d="M1116.79 70.37L1306.79 -53.6" stroke="rgba(250, 131, 52, 0.67)" stroke-width="1.5"></path><path d="M1110.73 247.99L1110.73 247.99" stroke="rgba(250, 131, 52, 0.67)" stroke-width="1.5"></path><path d="M1110.73 247.99L1119.19 371.27" stroke="rgba(250, 131, 52, 0.67)" stroke-width="1.5"></path><path d="M1110.73 247.99L966.53 368.04" stroke="rgba(250, 131, 52, 0.67)" stroke-width="1.5"></path><path d="M1119.19 371.27L1119.19 371.27" stroke="rgba(250, 131, 52, 0.67)" stroke-width="1.5"></path><path d="M1119.19 371.27L1089.82 489.01" stroke="rgba(250, 131, 52, 0.67)" stroke-width="1.5"></path><path d="M1089.82 489.01L1089.82 489.01" stroke="rgba(250, 131, 52, 0.67)" stroke-width="1.5"></path><path d="M1089.82 489.01L966.53 368.04" stroke="rgba(250, 131, 52, 0.67)" stroke-width="1.5"></path><path d="M1089.82 489.01L1290.31 541.31" stroke="rgba(250, 131, 52, 0.67)" stroke-width="1.5"></path><path d="M1089.82 489.01L1111.77 697.13" stroke="rgba(250, 131, 52, 0.67)" stroke-width="1.5"></path><path d="M1111.77 697.13L1111.77 697.13" stroke="rgba(250, 131, 52, 0.67)" stroke-width="1.5"></path><path d="M1111.77 697.13L1273.34 681.18" stroke="rgba(250, 131, 52, 0.67)" stroke-width="1.5"></path><path d="M1306.79 -53.6L1306.79 -53.6" stroke="rgba(250, 131, 52, 0.67)" stroke-width="1.5"></path><path d="M1306.79 -53.6L1403.82 -40.95" stroke="rgba(250, 131, 52, 0.67)" stroke-width="1.5"></path><path d="M1306.79 -53.6L1276.02 51.69" stroke="rgba(250, 131, 52, 0.67)" stroke-width="1.5"></path><path d="M1306.79 -53.6L1430.25 69.38" stroke="rgba(250, 131, 52, 0.67)" stroke-width="1.5"></path><path d="M1276.02 51.69L1276.02 51.69" stroke="rgba(250, 131, 52, 0.67)" stroke-width="1.5"></path><path d="M1276.02 51.69L1430.25 69.38" stroke="rgba(250, 131, 52, 0.67)" stroke-width="1.5"></path><path d="M1276.02 51.69L1403.82 -40.95" stroke="rgba(250, 131, 52, 0.67)" stroke-width="1.5"></path><path d="M1306.34 401.53L1306.34 401.53" stroke="rgba(250, 131, 52, 0.67)" stroke-width="1.5"></path><path d="M1306.34 401.53L1290.31 541.31" stroke="rgba(250, 131, 52, 0.67)" stroke-width="1.5"></path><path d="M1306.34 401.53L1445.85 351.59" stroke="rgba(250, 131, 52, 0.67)" stroke-width="1.5"></path><path d="M1306.34 401.53L1411.41 542.88" stroke="rgba(250, 131, 52, 0.67)" stroke-width="1.5"></path><path d="M1290.31 541.31L1290.31 541.31" stroke="rgba(250, 131, 52, 0.67)" stroke-width="1.5"></path><path d="M1290.31 541.31L1411.41 542.88" stroke="rgba(250, 131, 52, 0.67)" stroke-width="1.5"></path><path d="M1273.34 681.18L1273.34 681.18" stroke="rgba(250, 131, 52, 0.67)" stroke-width="1.5"></path><path d="M1273.34 681.18L1290.31 541.31" stroke="rgba(250, 131, 52, 0.67)" stroke-width="1.5"></path><path d="M1273.34 681.18L1437.64 680.84" stroke="rgba(250, 131, 52, 0.67)" stroke-width="1.5"></path><path d="M1403.82 -40.95L1403.82 -40.95" stroke="rgba(250, 131, 52, 0.67)" stroke-width="1.5"></path><path d="M1403.82 -40.95L1430.25 69.38" stroke="rgba(250, 131, 52, 0.67)" stroke-width="1.5"></path><path d="M1430.25 69.38L1430.25 69.38" stroke="rgba(250, 131, 52, 0.67)" stroke-width="1.5"></path><path d="M1430.25 69.38L1551.61 63.12" stroke="rgba(250, 131, 52, 0.67)" stroke-width="1.5"></path><path d="M1430.25 69.38L1406.83 232.53" stroke="rgba(250, 131, 52, 0.67)" stroke-width="1.5"></path><path d="M1406.83 232.53L1406.83 232.53" stroke="rgba(250, 131, 52, 0.67)" stroke-width="1.5"></path><path d="M1406.83 232.53L1445.85 351.59" stroke="rgba(250, 131, 52, 0.67)" stroke-width="1.5"></path><path d="M1406.83 232.53L1568 246.49" stroke="rgba(250, 131, 52, 0.67)" stroke-width="1.5"></path><path d="M1445.85 351.59L1445.85 351.59" stroke="rgba(250, 131, 52, 0.67)" stroke-width="1.5"></path><path d="M1411.41 542.88L1411.41 542.88" stroke="rgba(250, 131, 52, 0.67)" stroke-width="1.5"></path><path d="M1411.41 542.88L1437.64 680.84" stroke="rgba(250, 131, 52, 0.67)" stroke-width="1.5"></path><path d="M1411.41 542.88L1577.94 521.67" stroke="rgba(250, 131, 52, 0.67)" stroke-width="1.5"></path><path d="M1411.41 542.88L1445.85 351.59" stroke="rgba(250, 131, 52, 0.67)" stroke-width="1.5"></path><path d="M1437.64 680.84L1437.64 680.84" stroke="rgba(250, 131, 52, 0.67)" stroke-width="1.5"></path><path d="M1437.64 680.84L1586.05 643.6" stroke="rgba(250, 131, 52, 0.67)" stroke-width="1.5"></path><path d="M1610.51 -72.31L1610.51 -72.31" stroke="rgba(250, 131, 52, 0.67)" stroke-width="1.5"></path><path d="M1610.51 -72.31L1551.61 63.12" stroke="rgba(250, 131, 52, 0.67)" stroke-width="1.5"></path><path d="M1610.51 -72.31L1403.82 -40.95" stroke="rgba(250, 131, 52, 0.67)" stroke-width="1.5"></path><path d="M1610.51 -72.31L1430.25 69.38" stroke="rgba(250, 131, 52, 0.67)" stroke-width="1.5"></path><path d="M1610.51 -72.31L1306.79 -53.6" stroke="rgba(250, 131, 52, 0.67)" stroke-width="1.5"></path><path d="M1610.51 -72.31L1568 246.49" stroke="rgba(250, 131, 52, 0.67)" stroke-width="1.5"></path><path d="M1610.51 -72.31L1276.02 51.69" stroke="rgba(250, 131, 52, 0.67)" stroke-width="1.5"></path><path d="M1551.61 63.12L1551.61 63.12" stroke="rgba(250, 131, 52, 0.67)" stroke-width="1.5"></path><path d="M1551.61 63.12L1403.82 -40.95" stroke="rgba(250, 131, 52, 0.67)" stroke-width="1.5"></path><path d="M1551.61 63.12L1568 246.49" stroke="rgba(250, 131, 52, 0.67)" stroke-width="1.5"></path><path d="M1551.61 63.12L1406.83 232.53" stroke="rgba(250, 131, 52, 0.67)" stroke-width="1.5"></path><path d="M1551.61 63.12L1306.79 -53.6" stroke="rgba(250, 131, 52, 0.67)" stroke-width="1.5"></path><path d="M1568 246.49L1568 246.49" stroke="rgba(250, 131, 52, 0.67)" stroke-width="1.5"></path><path d="M1568 246.49L1604.05 401.38" stroke="rgba(250, 131, 52, 0.67)" stroke-width="1.5"></path><path d="M1568 246.49L1445.85 351.59" stroke="rgba(250, 131, 52, 0.67)" stroke-width="1.5"></path><path d="M1604.05 401.38L1604.05 401.38" stroke="rgba(250, 131, 52, 0.67)" stroke-width="1.5"></path><path d="M1604.05 401.38L1577.94 521.67" stroke="rgba(250, 131, 52, 0.67)" stroke-width="1.5"></path><path d="M1604.05 401.38L1445.85 351.59" stroke="rgba(250, 131, 52, 0.67)" stroke-width="1.5"></path><path d="M1604.05 401.38L1411.41 542.88" stroke="rgba(250, 131, 52, 0.67)" stroke-width="1.5"></path><path d="M1577.94 521.67L1577.94 521.67" stroke="rgba(250, 131, 52, 0.67)" stroke-width="1.5"></path><path d="M1577.94 521.67L1586.05 643.6" stroke="rgba(250, 131, 52, 0.67)" stroke-width="1.5"></path><path d="M1577.94 521.67L1437.64 680.84" stroke="rgba(250, 131, 52, 0.67)" stroke-width="1.5"></path><path d="M1577.94 521.67L1445.85 351.59" stroke="rgba(250, 131, 52, 0.67)" stroke-width="1.5"></path><path d="M1577.94 521.67L1568 246.49" stroke="rgba(250, 131, 52, 0.67)" stroke-width="1.5"></path><path d="M1586.05 643.6L1586.05 643.6" stroke="rgba(250, 131, 52, 0.67)" stroke-width="1.5"></path><circle r="5" cx="-81.36" cy="358.95" fill="rgba(250, 131, 52, 0.67)"></circle><circle r="5" cx="-56.76" cy="524.12" fill="rgba(250, 131, 52, 0.67)"></circle><circle r="5" cx="-104.05" cy="692.33" fill="rgba(250, 131, 52, 0.67)"></circle><circle r="5" cx="53.96" cy="398.06" fill="rgba(250, 131, 52, 0.67)"></circle><circle r="5" cx="110.13" cy="515.39" fill="rgba(250, 131, 52, 0.67)"></circle><circle r="5" cx="50.38" cy="688.17" fill="rgba(250, 131, 52, 0.67)"></circle><circle r="5" cx="234.31" cy="369.23" fill="rgba(250, 131, 52, 0.67)"></circle><circle r="5" cx="205.11" cy="505.16" fill="rgba(250, 131, 52, 0.67)"></circle><circle r="5" cx="248.24" cy="641.64" fill="rgba(250, 131, 52, 0.67)"></circle><circle r="5" cx="340.08" cy="395.07" fill="rgba(250, 131, 52, 0.67)"></circle><circle r="5" cx="396.65" cy="658.39" fill="rgba(250, 131, 52, 0.67)"></circle><circle r="5" cx="537.2" cy="365.3" fill="rgba(250, 131, 52, 0.67)"></circle><circle r="5" cx="557.78" cy="502.81" fill="rgba(250, 131, 52, 0.67)"></circle><circle r="5" cx="679.77" cy="497.79" fill="rgba(250, 131, 52, 0.67)"></circle><circle r="5" cx="643.22" cy="686.14" fill="rgba(250, 131, 52, 0.67)"></circle><circle r="5" cx="827.04" cy="259.46" fill="rgba(250, 131, 52, 0.67)"></circle><circle r="5" cx="836.52" cy="410.54" fill="rgba(250, 131, 52, 0.67)"></circle><circle r="5" cx="839.39" cy="555.3" fill="rgba(250, 131, 52, 0.67)"></circle><circle r="5" cx="1002.77" cy="-110.79" fill="rgba(250, 131, 52, 0.67)"></circle><circle r="5" cx="987.85" cy="96.52" fill="rgba(250, 131, 52, 0.67)"></circle><circle r="5" cx="942.39" cy="245.49" fill="rgba(250, 131, 52, 0.67)"></circle><circle r="5" cx="966.53" cy="368.04" fill="rgba(250, 131, 52, 0.67)"></circle><circle r="5" cx="1011.81" cy="640.23" fill="rgba(250, 131, 52, 0.67)"></circle><circle r="5" cx="1162.19" cy="-80.85" fill="rgba(250, 131, 52, 0.67)"></circle><circle r="5" cx="1116.79" cy="70.37" fill="rgba(250, 131, 52, 0.67)"></circle><circle r="5" cx="1110.73" cy="247.99" fill="rgba(250, 131, 52, 0.67)"></circle><circle r="5" cx="1119.19" cy="371.27" fill="rgba(250, 131, 52, 0.67)"></circle><circle r="5" cx="1089.82" cy="489.01" fill="rgba(250, 131, 52, 0.67)"></circle><circle r="5" cx="1111.77" cy="697.13" fill="rgba(250, 131, 52, 0.67)"></circle><circle r="5" cx="1306.79" cy="-53.6" fill="rgba(250, 131, 52, 0.67)"></circle><circle r="5" cx="1276.02" cy="51.69" fill="rgba(250, 131, 52, 0.67)"></circle><circle r="5" cx="1306.34" cy="401.53" fill="rgba(250, 131, 52, 0.67)"></circle><circle r="5" cx="1290.31" cy="541.31" fill="rgba(250, 131, 52, 0.67)"></circle><circle r="5" cx="1273.34" cy="681.18" fill="rgba(250, 131, 52, 0.67)"></circle><circle r="5" cx="1403.82" cy="-40.95" fill="rgba(250, 131, 52, 0.67)"></circle><circle r="5" cx="1430.25" cy="69.38" fill="rgba(250, 131, 52, 0.67)"></circle><circle r="5" cx="1406.83" cy="232.53" fill="rgba(250, 131, 52, 0.67)"></circle><circle r="5" cx="1445.85" cy="351.59" fill="rgba(250, 131, 52, 0.67)"></circle><circle r="5" cx="1411.41" cy="542.88" fill="rgba(250, 131, 52, 0.67)"></circle><circle r="5" cx="1437.64" cy="680.84" fill="rgba(250, 131, 52, 0.67)"></circle><circle r="5" cx="1610.51" cy="-72.31" fill="rgba(250, 131, 52, 0.67)"></circle><circle r="5" cx="1551.61" cy="63.12" fill="rgba(250, 131, 52, 0.67)"></circle><circle r="5" cx="1568" cy="246.49" fill="rgba(250, 131, 52, 0.67)"></circle><circle r="5" cx="1604.05" cy="401.38" fill="rgba(250, 131, 52, 0.67)"></circle><circle r="5" cx="1577.94" cy="521.67" fill="rgba(250, 131, 52, 0.67)"></circle><circle r="5" cx="1586.05" cy="643.6" fill="rgba(250, 131, 52, 0.67)"></circle><path d="M860.55 364.56L860.55 364.56" stroke="hsl(23.899999999999977, 95.2%, 77%)" stroke-width="1.5"></path><path d="M860.55 364.56L965.87 408.76" stroke="hsl(23.899999999999977, 95.2%, 77%)" stroke-width="1.5"></path><path d="M860.55 364.56L848.02 502.73" stroke="hsl(23.899999999999977, 95.2%, 77%)" stroke-width="1.5"></path><path d="M860.55 364.56L984.41 525.51" stroke="hsl(23.899999999999977, 95.2%, 77%)" stroke-width="1.5"></path><path d="M860.55 364.56L1096.43 356.21" stroke="hsl(23.899999999999977, 95.2%, 77%)" stroke-width="1.5"></path><path d="M860.55 364.56L662.51 495.16" stroke="hsl(23.899999999999977, 95.2%, 77%)" stroke-width="1.5"></path><path d="M860.55 364.56L1112.68 550.9" stroke="hsl(23.899999999999977, 95.2%, 77%)" stroke-width="1.5"></path><path d="M1126.88 97.05L1126.88 97.05" stroke="hsl(23.899999999999977, 95.2%, 77%)" stroke-width="1.5"></path><path d="M1126.88 97.05L1137.39 192.01" stroke="hsl(23.899999999999977, 95.2%, 77%)" stroke-width="1.5"></path><path d="M1126.88 97.05L1255.37 73.63" stroke="hsl(23.899999999999977, 95.2%, 77%)" stroke-width="1.5"></path><path d="M1283.17 -104.12L1283.17 -104.12" stroke="hsl(23.899999999999977, 95.2%, 77%)" stroke-width="1.5"></path><path d="M1283.17 -104.12L1417.78 -65.52" stroke="hsl(23.899999999999977, 95.2%, 77%)" stroke-width="1.5"></path><path d="M-45.18 529.48L-45.18 529.48" stroke="hsl(23.899999999999977, 95.2%, 77%)" stroke-width="1.5"></path><path d="M-45.18 529.48L107.68 534.47" stroke="hsl(23.899999999999977, 95.2%, 77%)" stroke-width="1.5"></path><path d="M-45.18 529.48L41.02 681.35" stroke="hsl(23.899999999999977, 95.2%, 77%)" stroke-width="1.5"></path><path d="M107.68 534.47L107.68 534.47" stroke="hsl(23.899999999999977, 95.2%, 77%)" stroke-width="1.5"></path><path d="M107.68 534.47L190.51 490.04" stroke="hsl(23.899999999999977, 95.2%, 77%)" stroke-width="1.5"></path><path d="M107.68 534.47L41.02 681.35" stroke="hsl(23.899999999999977, 95.2%, 77%)" stroke-width="1.5"></path><path d="M41.02 681.35L41.02 681.35" stroke="hsl(23.899999999999977, 95.2%, 77%)" stroke-width="1.5"></path><path d="M190.51 490.04L190.51 490.04" stroke="hsl(23.899999999999977, 95.2%, 77%)" stroke-width="1.5"></path><path d="M190.51 490.04L342.65 508.25" stroke="hsl(23.899999999999977, 95.2%, 77%)" stroke-width="1.5"></path><path d="M190.51 490.04L241.96 707.47" stroke="hsl(23.899999999999977, 95.2%, 77%)" stroke-width="1.5"></path><path d="M190.51 490.04L-45.18 529.48" stroke="hsl(23.899999999999977, 95.2%, 77%)" stroke-width="1.5"></path><path d="M241.96 707.47L241.96 707.47" stroke="hsl(23.899999999999977, 95.2%, 77%)" stroke-width="1.5"></path><path d="M241.96 707.47L41.02 681.35" stroke="hsl(23.899999999999977, 95.2%, 77%)" stroke-width="1.5"></path><path d="M241.96 707.47L107.68 534.47" stroke="hsl(23.899999999999977, 95.2%, 77%)" stroke-width="1.5"></path><path d="M342.65 508.25L342.65 508.25" stroke="hsl(23.899999999999977, 95.2%, 77%)" stroke-width="1.5"></path><path d="M342.65 508.25L508.13 558.13" stroke="hsl(23.899999999999977, 95.2%, 77%)" stroke-width="1.5"></path><path d="M342.65 508.25L490.37 645.94" stroke="hsl(23.899999999999977, 95.2%, 77%)" stroke-width="1.5"></path><path d="M342.65 508.25L241.96 707.47" stroke="hsl(23.899999999999977, 95.2%, 77%)" stroke-width="1.5"></path><path d="M342.65 508.25L107.68 534.47" stroke="hsl(23.899999999999977, 95.2%, 77%)" stroke-width="1.5"></path><path d="M342.65 508.25L662.51 495.16" stroke="hsl(23.899999999999977, 95.2%, 77%)" stroke-width="1.5"></path><path d="M508.13 558.13L508.13 558.13" stroke="hsl(23.899999999999977, 95.2%, 77%)" stroke-width="1.5"></path><path d="M508.13 558.13L490.37 645.94" stroke="hsl(23.899999999999977, 95.2%, 77%)" stroke-width="1.5"></path><path d="M508.13 558.13L662.51 495.16" stroke="hsl(23.899999999999977, 95.2%, 77%)" stroke-width="1.5"></path><path d="M508.13 558.13L685.98 699.67" stroke="hsl(23.899999999999977, 95.2%, 77%)" stroke-width="1.5"></path><path d="M490.37 645.94L490.37 645.94" stroke="hsl(23.899999999999977, 95.2%, 77%)" stroke-width="1.5"></path><path d="M490.37 645.94L685.98 699.67" stroke="hsl(23.899999999999977, 95.2%, 77%)" stroke-width="1.5"></path><path d="M490.37 645.94L662.51 495.16" stroke="hsl(23.899999999999977, 95.2%, 77%)" stroke-width="1.5"></path><path d="M662.51 495.16L662.51 495.16" stroke="hsl(23.899999999999977, 95.2%, 77%)" stroke-width="1.5"></path><path d="M685.98 699.67L685.98 699.67" stroke="hsl(23.899999999999977, 95.2%, 77%)" stroke-width="1.5"></path><path d="M685.98 699.67L848.4 680.78" stroke="hsl(23.899999999999977, 95.2%, 77%)" stroke-width="1.5"></path><path d="M685.98 699.67L662.51 495.16" stroke="hsl(23.899999999999977, 95.2%, 77%)" stroke-width="1.5"></path><path d="M685.98 699.67L848.02 502.73" stroke="hsl(23.899999999999977, 95.2%, 77%)" stroke-width="1.5"></path><path d="M848.02 502.73L848.02 502.73" stroke="hsl(23.899999999999977, 95.2%, 77%)" stroke-width="1.5"></path><path d="M848.02 502.73L984.41 525.51" stroke="hsl(23.899999999999977, 95.2%, 77%)" stroke-width="1.5"></path><path d="M848.02 502.73L965.87 408.76" stroke="hsl(23.899999999999977, 95.2%, 77%)" stroke-width="1.5"></path><path d="M848.02 502.73L848.4 680.78" stroke="hsl(23.899999999999977, 95.2%, 77%)" stroke-width="1.5"></path><path d="M848.4 680.78L848.4 680.78" stroke="hsl(23.899999999999977, 95.2%, 77%)" stroke-width="1.5"></path><path d="M848.4 680.78L995.13 668.93" stroke="hsl(23.899999999999977, 95.2%, 77%)" stroke-width="1.5"></path><path d="M965.87 408.76L965.87 408.76" stroke="hsl(23.899999999999977, 95.2%, 77%)" stroke-width="1.5"></path><path d="M965.87 408.76L984.41 525.51" stroke="hsl(23.899999999999977, 95.2%, 77%)" stroke-width="1.5"></path><path d="M965.87 408.76L1096.43 356.21" stroke="hsl(23.899999999999977, 95.2%, 77%)" stroke-width="1.5"></path><path d="M965.87 408.76L1112.68 550.9" stroke="hsl(23.899999999999977, 95.2%, 77%)" stroke-width="1.5"></path><path d="M984.41 525.51L984.41 525.51" stroke="hsl(23.899999999999977, 95.2%, 77%)" stroke-width="1.5"></path><path d="M984.41 525.51L1112.68 550.9" stroke="hsl(23.899999999999977, 95.2%, 77%)" stroke-width="1.5"></path><path d="M984.41 525.51L995.13 668.93" stroke="hsl(23.899999999999977, 95.2%, 77%)" stroke-width="1.5"></path><path d="M984.41 525.51L1100.55 676.09" stroke="hsl(23.899999999999977, 95.2%, 77%)" stroke-width="1.5"></path><path d="M995.13 668.93L995.13 668.93" stroke="hsl(23.899999999999977, 95.2%, 77%)" stroke-width="1.5"></path><path d="M995.13 668.93L1100.55 676.09" stroke="hsl(23.899999999999977, 95.2%, 77%)" stroke-width="1.5"></path><path d="M995.13 668.93L1112.68 550.9" stroke="hsl(23.899999999999977, 95.2%, 77%)" stroke-width="1.5"></path><path d="M995.13 668.93L848.02 502.73" stroke="hsl(23.899999999999977, 95.2%, 77%)" stroke-width="1.5"></path><path d="M1137.39 192.01L1137.39 192.01" stroke="hsl(23.899999999999977, 95.2%, 77%)" stroke-width="1.5"></path><path d="M1137.39 192.01L1272.89 232.72" stroke="hsl(23.899999999999977, 95.2%, 77%)" stroke-width="1.5"></path><path d="M1137.39 192.01L1255.37 73.63" stroke="hsl(23.899999999999977, 95.2%, 77%)" stroke-width="1.5"></path><path d="M1137.39 192.01L1096.43 356.21" stroke="hsl(23.899999999999977, 95.2%, 77%)" stroke-width="1.5"></path><path d="M1096.43 356.21L1096.43 356.21" stroke="hsl(23.899999999999977, 95.2%, 77%)" stroke-width="1.5"></path><path d="M1096.43 356.21L1112.68 550.9" stroke="hsl(23.899999999999977, 95.2%, 77%)" stroke-width="1.5"></path><path d="M1096.43 356.21L984.41 525.51" stroke="hsl(23.899999999999977, 95.2%, 77%)" stroke-width="1.5"></path><path d="M1096.43 356.21L1306.29 345.68" stroke="hsl(23.899999999999977, 95.2%, 77%)" stroke-width="1.5"></path><path d="M1096.43 356.21L1272.89 232.72" stroke="hsl(23.899999999999977, 95.2%, 77%)" stroke-width="1.5"></path><path d="M1112.68 550.9L1112.68 550.9" stroke="hsl(23.899999999999977, 95.2%, 77%)" stroke-width="1.5"></path><path d="M1112.68 550.9L1100.55 676.09" stroke="hsl(23.899999999999977, 95.2%, 77%)" stroke-width="1.5"></path><path d="M1100.55 676.09L1100.55 676.09" stroke="hsl(23.899999999999977, 95.2%, 77%)" stroke-width="1.5"></path><path d="M1100.55 676.09L1283.69 535.42" stroke="hsl(23.899999999999977, 95.2%, 77%)" stroke-width="1.5"></path><path d="M1255.37 73.63L1255.37 73.63" stroke="hsl(23.899999999999977, 95.2%, 77%)" stroke-width="1.5"></path><path d="M1255.37 73.63L1272.89 232.72" stroke="hsl(23.899999999999977, 95.2%, 77%)" stroke-width="1.5"></path><path d="M1272.89 232.72L1272.89 232.72" stroke="hsl(23.899999999999977, 95.2%, 77%)" stroke-width="1.5"></path><path d="M1272.89 232.72L1306.29 345.68" stroke="hsl(23.899999999999977, 95.2%, 77%)" stroke-width="1.5"></path><path d="M1272.89 232.72L1422.72 239.92" stroke="hsl(23.899999999999977, 95.2%, 77%)" stroke-width="1.5"></path><path d="M1272.89 232.72L1424.4 342.78" stroke="hsl(23.899999999999977, 95.2%, 77%)" stroke-width="1.5"></path><path d="M1272.89 232.72L1126.88 97.05" stroke="hsl(23.899999999999977, 95.2%, 77%)" stroke-width="1.5"></path><path d="M1306.29 345.68L1306.29 345.68" stroke="hsl(23.899999999999977, 95.2%, 77%)" stroke-width="1.5"></path><path d="M1306.29 345.68L1424.4 342.78" stroke="hsl(23.899999999999977, 95.2%, 77%)" stroke-width="1.5"></path><path d="M1306.29 345.68L1422.72 239.92" stroke="hsl(23.899999999999977, 95.2%, 77%)" stroke-width="1.5"></path><path d="M1306.29 345.68L1283.69 535.42" stroke="hsl(23.899999999999977, 95.2%, 77%)" stroke-width="1.5"></path><path d="M1283.69 535.42L1283.69 535.42" stroke="hsl(23.899999999999977, 95.2%, 77%)" stroke-width="1.5"></path><path d="M1283.69 535.42L1397.28 533.33" stroke="hsl(23.899999999999977, 95.2%, 77%)" stroke-width="1.5"></path><path d="M1283.69 535.42L1112.68 550.9" stroke="hsl(23.899999999999977, 95.2%, 77%)" stroke-width="1.5"></path><path d="M1417.78 -65.52L1417.78 -65.52" stroke="hsl(23.899999999999977, 95.2%, 77%)" stroke-width="1.5"></path><path d="M1417.78 -65.52L1455.45 62.86" stroke="hsl(23.899999999999977, 95.2%, 77%)" stroke-width="1.5"></path><path d="M1417.78 -65.52L1595.84 -44.34" stroke="hsl(23.899999999999977, 95.2%, 77%)" stroke-width="1.5"></path><path d="M1455.45 62.86L1455.45 62.86" stroke="hsl(23.899999999999977, 95.2%, 77%)" stroke-width="1.5"></path><path d="M1455.45 62.86L1547.92 82.8" stroke="hsl(23.899999999999977, 95.2%, 77%)" stroke-width="1.5"></path><path d="M1422.72 239.92L1422.72 239.92" stroke="hsl(23.899999999999977, 95.2%, 77%)" stroke-width="1.5"></path><path d="M1422.72 239.92L1424.4 342.78" stroke="hsl(23.899999999999977, 95.2%, 77%)" stroke-width="1.5"></path><path d="M1422.72 239.92L1552.2 231.33" stroke="hsl(23.899999999999977, 95.2%, 77%)" stroke-width="1.5"></path><path d="M1424.4 342.78L1424.4 342.78" stroke="hsl(23.899999999999977, 95.2%, 77%)" stroke-width="1.5"></path><path d="M1424.4 342.78L1555.01 394.9" stroke="hsl(23.899999999999977, 95.2%, 77%)" stroke-width="1.5"></path><path d="M1424.4 342.78L1552.2 231.33" stroke="hsl(23.899999999999977, 95.2%, 77%)" stroke-width="1.5"></path><path d="M1397.28 533.33L1397.28 533.33" stroke="hsl(23.899999999999977, 95.2%, 77%)" stroke-width="1.5"></path><path d="M1397.28 533.33L1439.35 695.02" stroke="hsl(23.899999999999977, 95.2%, 77%)" stroke-width="1.5"></path><path d="M1397.28 533.33L1581.27 496.12" stroke="hsl(23.899999999999977, 95.2%, 77%)" stroke-width="1.5"></path><path d="M1397.28 533.33L1424.4 342.78" stroke="hsl(23.899999999999977, 95.2%, 77%)" stroke-width="1.5"></path><path d="M1439.35 695.02L1439.35 695.02" stroke="hsl(23.899999999999977, 95.2%, 77%)" stroke-width="1.5"></path><path d="M1439.35 695.02L1283.69 535.42" stroke="hsl(23.899999999999977, 95.2%, 77%)" stroke-width="1.5"></path><path d="M1595.84 -44.34L1595.84 -44.34" stroke="hsl(23.899999999999977, 95.2%, 77%)" stroke-width="1.5"></path><path d="M1595.84 -44.34L1547.92 82.8" stroke="hsl(23.899999999999977, 95.2%, 77%)" stroke-width="1.5"></path><path d="M1595.84 -44.34L1455.45 62.86" stroke="hsl(23.899999999999977, 95.2%, 77%)" stroke-width="1.5"></path><path d="M1595.84 -44.34L1552.2 231.33" stroke="hsl(23.899999999999977, 95.2%, 77%)" stroke-width="1.5"></path><path d="M1595.84 -44.34L1283.17 -104.12" stroke="hsl(23.899999999999977, 95.2%, 77%)" stroke-width="1.5"></path><path d="M1595.84 -44.34L1422.72 239.92" stroke="hsl(23.899999999999977, 95.2%, 77%)" stroke-width="1.5"></path><path d="M1547.92 82.8L1547.92 82.8" stroke="hsl(23.899999999999977, 95.2%, 77%)" stroke-width="1.5"></path><path d="M1552.2 231.33L1552.2 231.33" stroke="hsl(23.899999999999977, 95.2%, 77%)" stroke-width="1.5"></path><path d="M1552.2 231.33L1547.92 82.8" stroke="hsl(23.899999999999977, 95.2%, 77%)" stroke-width="1.5"></path><path d="M1552.2 231.33L1555.01 394.9" stroke="hsl(23.899999999999977, 95.2%, 77%)" stroke-width="1.5"></path><path d="M1552.2 231.33L1455.45 62.86" stroke="hsl(23.899999999999977, 95.2%, 77%)" stroke-width="1.5"></path><path d="M1555.01 394.9L1555.01 394.9" stroke="hsl(23.899999999999977, 95.2%, 77%)" stroke-width="1.5"></path><path d="M1555.01 394.9L1581.27 496.12" stroke="hsl(23.899999999999977, 95.2%, 77%)" stroke-width="1.5"></path><path d="M1555.01 394.9L1422.72 239.92" stroke="hsl(23.899999999999977, 95.2%, 77%)" stroke-width="1.5"></path><path d="M1555.01 394.9L1397.28 533.33" stroke="hsl(23.899999999999977, 95.2%, 77%)" stroke-width="1.5"></path><path d="M1555.01 394.9L1306.29 345.68" stroke="hsl(23.899999999999977, 95.2%, 77%)" stroke-width="1.5"></path><path d="M1581.27 496.12L1581.27 496.12" stroke="hsl(23.899999999999977, 95.2%, 77%)" stroke-width="1.5"></path><circle r="25" cx="860.55" cy="364.56" fill="url(&quot;#SvgjsRadialGradient1237&quot;)"></circle><circle r="25" cx="1126.88" cy="97.05" fill="url(&quot;#SvgjsRadialGradient1237&quot;)"></circle><circle r="25" cx="1283.17" cy="-104.12" fill="url(&quot;#SvgjsRadialGradient1237&quot;)"></circle><circle r="5" cx="-45.18" cy="529.48" fill="#fdc19a"></circle><circle r="5" cx="107.68" cy="534.47" fill="#fdc19a"></circle><circle r="5" cx="41.02" cy="681.35" fill="#fdc19a"></circle><circle r="5" cx="190.51" cy="490.04" fill="#fdc19a"></circle><circle r="5" cx="241.96" cy="707.47" fill="#fdc19a"></circle><circle r="5" cx="342.65" cy="508.25" fill="#fdc19a"></circle><circle r="5" cx="508.13" cy="558.13" fill="#fdc19a"></circle><circle r="5" cx="490.37" cy="645.94" fill="#fdc19a"></circle><circle r="5" cx="662.51" cy="495.16" fill="#fdc19a"></circle><circle r="5" cx="685.98" cy="699.67" fill="#fdc19a"></circle><circle r="5" cx="848.02" cy="502.73" fill="#fdc19a"></circle><circle r="5" cx="848.4" cy="680.78" fill="#fdc19a"></circle><circle r="5" cx="965.87" cy="408.76" fill="#fdc19a"></circle><circle r="5" cx="984.41" cy="525.51" fill="#fdc19a"></circle><circle r="5" cx="995.13" cy="668.93" fill="#fdc19a"></circle><circle r="5" cx="1137.39" cy="192.01" fill="#fdc19a"></circle><circle r="5" cx="1096.43" cy="356.21" fill="#fdc19a"></circle><circle r="5" cx="1112.68" cy="550.9" fill="#fdc19a"></circle><circle r="5" cx="1100.55" cy="676.09" fill="#fdc19a"></circle><circle r="5" cx="1255.37" cy="73.63" fill="#fdc19a"></circle><circle r="5" cx="1272.89" cy="232.72" fill="#fdc19a"></circle><circle r="5" cx="1306.29" cy="345.68" fill="#fdc19a"></circle><circle r="5" cx="1283.69" cy="535.42" fill="#fdc19a"></circle><circle r="5" cx="1417.78" cy="-65.52" fill="#fdc19a"></circle><circle r="5" cx="1455.45" cy="62.86" fill="#fdc19a"></circle><circle r="5" cx="1422.72" cy="239.92" fill="#fdc19a"></circle><circle r="5" cx="1424.4" cy="342.78" fill="#fdc19a"></circle><circle r="5" cx="1397.28" cy="533.33" fill="#fdc19a"></circle><circle r="5" cx="1439.35" cy="695.02" fill="#fdc19a"></circle><circle r="5" cx="1595.84" cy="-44.34" fill="#fdc19a"></circle><circle r="5" cx="1547.92" cy="82.8" fill="#fdc19a"></circle><circle r="5" cx="1552.2" cy="231.33" fill="#fdc19a"></circle><circle r="5" cx="1555.01" cy="394.9" fill="#fdc19a"></circle><circle r="5" cx="1581.27" cy="496.12" fill="#fdc19a"></circle></g><defs><mask id="SvgjsMask1236"><rect width="1440" height="560" fill="#ffffff"></rect></mask><radialGradient id="SvgjsRadialGradient1237"><stop stop-color="#ffffff" offset="0.1"></stop><stop stop-color="rgba(250, 131, 52, 1)" offset="0.2"></stop><stop stop-color="rgba(250, 131, 52, 0)" offset="1"></stop></radialGradient></defs></svg>